<svg width="580" height="220" viewBox="0 0 580 220" xmlns="http://www.w3.org/2000/svg">
  <rect width="580" height="220" fill="#0B0E13" stroke="#1A222B" stroke-width="1"/>
  <g stroke="#F5A623" stroke-width="1.5" fill="none">
    <path d="M12 12 L12 28 M12 12 L28 12"/>
    <path d="M568 12 L568 28 M568 12 L552 12"/>
  </g>
  <text x="20" y="34" font-family="'Courier New', monospace" font-size="10" fill="#5B6572" letter-spacing="1">PROJECT.02</text>
  <text x="20" y="58" font-family="'Courier New', monospace" font-weight="bold" font-size="20" fill="#E6EDF3">DocuMind</text>
  <text x="20" y="80" font-family="'Courier New', monospace" font-size="11" fill="#8B96A3">RAG document Q&amp;A pipeline</text>

  <g font-family="'Courier New', monospace" font-size="9" fill="#C9D1D9">
    <rect x="20" y="100" width="80" height="28" rx="2" fill="none" stroke="#3E4C5A"/>
    <text x="60" y="118" text-anchor="middle">DOCUMENT</text>

    <rect x="140" y="100" width="80" height="28" rx="2" fill="none" stroke="#3E4C5A"/>
    <text x="180" y="118" text-anchor="middle">CHUNK+EMBED</text>

    <rect x="260" y="100" width="80" height="28" rx="2" fill="none" stroke="#F5A623"/>
    <text x="300" y="118" text-anchor="middle" fill="#F5A623">QDRANT</text>

    <rect x="390" y="100" width="80" height="28" rx="2" fill="none" stroke="#3E4C5A"/>
    <text x="430" y="118" text-anchor="middle">LLM ANSWER</text>

    <path d="M100 114 L140 114" stroke="#2C3844"/>
    <path d="M220 114 L260 114" stroke="#2C3844"/>
    <path d="M340 114 L390 114" stroke="#2C3844"/>
  </g>

  <line x1="20" y1="150" x2="560" y2="150" stroke="#1A222B"/>
  <text x="20" y="170" font-family="'Courier New', monospace" font-size="10" fill="#5B6572">FastAPI · LangChain · Qdrant · OpenAI · Redis · Docker</text>
  <text x="20" y="188" font-family="'Courier New', monospace" font-size="10" fill="#3E4C5A">Fixed a real Qdrant 1.18 .query_points() migration bug in prod</text>
</svg>
